<svg width="32" height="32" viewBox="0 0 32 32" fill="none" xmlns="http://www.w3.org/2000/svg">
  <!-- Cabeza angular -->
  <path d="M8 12 L8 20 L12 24 L20 24 L24 20 L24 12 L22 8 L10 8 Z" fill="#2D2D2D"/>

  <!-- Hocico rectangular -->
  <rect x="11" y="19" width="10" height="7" rx="1" fill="#F5F5DC"/>

  <!-- Barba cuadrada -->
  <rect x="13" y="25" width="6" height="4" rx="1" fill="#F5F5DC"/>

  <!-- Orejas largas y paradas con doblez -->
  <polygon points="6,14 9,3 12,4 13,14" fill="#2D2D2D"/>
  <polygon points="26,14 23,3 20,4 19,14" fill="#2D2D2D"/>
  <!-- Doblez de las orejas -->
  <polygon points="7,8 9,5 11,6 10,10" fill="#1A1A1A"/>
  <polygon points="25,8 23,5 21,6 22,10" fill="#1A1A1A"/>

  <!-- Manchas marrones en la cabeza -->
  <rect x="9" y="10" width="4" height="3" rx="1" fill="#D2691E"/>
  <rect x="19" y="10" width="4" height="3" rx="1" fill="#D2691E"/>

  <!-- Cejas rectangulares tupidas -->
  <rect x="9" y="11" width="6" height="2" rx="1" fill="#D2691E"/>
  <rect x="17" y="11" width="6" height="2" rx="1" fill="#D2691E"/>

  <!-- Ojos pequeños y cuadrados -->
  <rect x="11" y="13" width="2" height="2" rx="0.5" fill="#FFF"/>
  <rect x="19" y="13" width="2" height="2" rx="0.5" fill="#FFF"/>
  <rect x="11.5" y="13.5" width="1" height="1" rx="0.5" fill="#000"/>
  <rect x="19.5" y="13.5" width="1" height="1" rx="0.5" fill="#000"/>
  <rect x="11.7" y="13.2" width="0.4" height="0.4" rx="0.2" fill="#FFF"/>
  <rect x="19.7" y="13.2" width="0.4" height="0.4" rx="0.2" fill="#FFF"/>

  <!-- Nariz cuadrada -->
  <rect x="15" y="20.5" width="2" height="1.5" rx="0.3" fill="#000"/>

  <!-- Bigotes/pelo facial rectangular -->
  <rect x="12" y="23" width="8" height="2" rx="1" fill="#F5F5DC"/>

  <!-- Collar rectangular -->
  <rect x="9" y="28" width="14" height="2.5" rx="0.5" fill="#8B4513"/>
  <rect x="15" y="28.5" width="2" height="1.5" rx="0.2" fill="#FFD700"/>
</svg>